<svg xmlns="http://www.w3.org/2000/svg" viewBox="0 0 64 64"><defs><linearGradient id="b" x1="0" y1="0" x2="0" y2="1"><stop offset="0" stop-color="#4aa8ff"/><stop offset="1" stop-color="#0062e0"/></linearGradient><linearGradient id="p" x1="0" y1="0" x2="0" y2="1"><stop offset="0" stop-color="#fff"/><stop offset="1" stop-color="#e8f1ff"/></linearGradient></defs><rect width="64" height="64" rx="14.4" fill="url(#b)"/><path d="M20 14h16.5L45 22.5V48a2 2 0 0 1-2 2H20a2 2 0 0 1-2-2V16a2 2 0 0 1 2-2z" fill="url(#p)"/><path d="M36.5 14v6.5a2 2 0 0 0 2 2H45" fill="#c9defc"/><path d="M23.5 29h15M23.5 34h15M23.5 39h10" stroke="#0a74f0" stroke-width="2.6" stroke-linecap="round"/><path d="M12 24v-5a5 5 0 0 1 5-5h2M45 50h2a5 5 0 0 0 5-5v-5" stroke="#fff" stroke-width="2.8" stroke-linecap="round" fill="none" opacity=".9"/></svg>
